<svg width="117" height="80" viewBox="0 0 117 80" fill="none" xmlns="http://www.w3.org/2000/svg">
<g clip-path="url(#clip0)">
<path d="M58.5 14.1176H57.1844V36.6703H58.5V14.1176Z" fill="white"/>
<path d="M58.5 0H57.1844V8.96781H58.5V0Z" fill="white"/>
<path d="M37.9516 17.0322L36.8069 17.6885L48.6064 38.7795L49.7511 38.1232L37.9516 17.0322Z" fill="white"/>
<path d="M23.3769 41.1247L22.8997 42.3658L35.2414 47.2287L35.7186 45.9875L23.3769 41.1247Z" fill="white"/>
<path d="M79.1167 17.0163L67.3195 38.1097L68.4644 38.7659L80.2615 17.6725L79.1167 17.0163Z" fill="white"/>
<path d="M93.5877 41.1367L81.2459 45.9996L81.7231 47.2407L94.0648 42.3779L93.5877 41.1367Z" fill="white"/>
<path d="M58.5 80H58.0615V78.6681H58.4123H58.8508V80H58.5ZM47.9753 78.0466C47.7122 77.9578 47.449 77.869 47.1859 77.6914L47.7122 76.4484C47.9753 76.5372 48.2384 76.6259 48.5015 76.8035L47.9753 78.0466ZM69.1125 77.9578L68.5862 76.7147C68.8493 76.6259 69.1124 76.5372 69.3756 76.3596L69.9018 77.6026C69.6387 77.7802 69.3756 77.869 69.1125 77.9578ZM38.5907 71.8313C38.4153 71.6537 38.1522 71.3873 37.9768 71.2097L38.9415 70.3218C39.117 70.4994 39.2924 70.677 39.5555 70.9434L38.5907 71.8313ZM78.497 71.8313L77.6199 70.8546C77.7954 70.677 77.9708 70.4994 78.2339 70.2331L79.1987 71.121C78.9355 71.3873 78.6724 71.6537 78.497 71.8313ZM32.1882 62.5971C32.1005 62.3307 31.925 62.0644 31.8373 61.798L33.0652 61.2652C33.1529 61.5316 33.2406 61.798 33.4161 62.0644L32.1882 62.5971ZM84.8996 62.5083L83.6717 61.9756C83.7594 61.7092 83.8471 61.4428 84.0225 61.1765L85.2504 61.7092C85.075 61.9756 84.9873 62.2419 84.8996 62.5083Z" fill="white"/>
<path d="M58.5 69.1676C46.0457 69.1676 36.2226 57.5361 35.7841 57.0033L35.4333 56.5594L35.7841 56.1154C36.2226 55.5827 46.0457 43.9512 58.5 43.9512C70.9543 43.9512 80.7774 55.5827 81.2159 56.1154L81.5667 56.5594L81.2159 57.0033C80.8651 57.5361 70.9543 69.1676 58.5 69.1676ZM37.1874 56.6482C39.1169 58.7791 47.9753 67.9245 58.5 67.9245C69.0247 67.9245 77.8831 58.7791 79.8126 56.6482C77.8831 54.5172 69.0247 45.3718 58.5 45.3718C47.9753 45.3718 39.1169 54.5172 37.1874 56.6482Z" fill="white"/>
<path d="M58.5 66.7702C52.4483 66.7702 47.5367 61.798 47.5367 55.6715C47.5367 49.5449 52.4483 44.5727 58.5 44.5727C64.5517 44.5727 69.4633 49.5449 69.4633 55.6715C69.4633 61.798 64.5517 66.7702 58.5 66.7702ZM58.5 45.9933C53.1499 45.9933 48.8523 50.3441 48.8523 55.7603C48.8523 61.1765 53.1499 65.5272 58.5 65.5272C63.8501 65.5272 68.1477 61.1765 68.1477 55.7603C68.1477 50.3441 63.8501 45.9933 58.5 45.9933Z" fill="white"/>
<path d="M58.5 64.0178C54.027 64.0178 50.3433 60.2886 50.3433 55.7603C50.3433 51.232 54.027 47.5028 58.5 47.5028C62.973 47.5028 66.6567 51.232 66.6567 55.7603C66.6567 60.2886 63.0607 64.0178 58.5 64.0178ZM58.5 48.7459C54.7286 48.7459 51.6589 51.8535 51.6589 55.6715C51.6589 59.4895 54.7286 62.5971 58.5 62.5971C62.2714 62.5971 65.3411 59.4895 65.3411 55.6715C65.3411 51.8535 62.2714 48.7459 58.5 48.7459Z" fill="white"/>
<path d="M58.5 60.9101C55.6934 60.9101 53.4131 58.6015 53.4131 55.7602C53.4131 52.919 55.6934 50.6104 58.5 50.6104C61.3066 50.6104 63.587 52.919 63.587 55.7602C63.587 58.6015 61.3066 60.9101 58.5 60.9101ZM58.5 51.8535C56.3951 51.8535 54.7286 53.5405 54.7286 55.6715C54.7286 57.8024 56.3951 59.4894 58.5 59.4894C60.605 59.4894 62.2714 57.8024 62.2714 55.6715C62.2714 53.5405 60.605 51.8535 58.5 51.8535Z" fill="white"/>
<path d="M58.5 58.1576C57.1844 58.1576 56.1319 57.0921 56.1319 55.7603C56.1319 54.4284 57.1844 53.3629 58.5 53.3629C59.8156 53.3629 60.8681 54.4284 60.8681 55.7603C60.8681 57.0921 59.8156 58.1576 58.5 58.1576ZM58.5 54.606C57.886 54.606 57.4475 55.1387 57.4475 55.6715C57.4475 56.2042 57.886 56.8257 58.5 56.8257C59.1139 56.8257 59.5525 56.293 59.5525 55.7603C59.5525 55.2275 59.1139 54.606 58.5 54.606Z" fill="white"/>
</g>
<defs>
<clipPath id="clip0">
<path d="M0 0H117V80H0V0Z" fill="white"/>
</clipPath>
</defs>
</svg>
