<?xml version="1.0" encoding="utf-8"?>
<!-- Generator: Adobe Illustrator 21.0.0, SVG Export Plug-In . SVG Version: 6.00 Build 0)  -->
<svg version="1.1" id="Capa_1" xmlns="http://www.w3.org/2000/svg" xmlns:xlink="http://www.w3.org/1999/xlink" x="0px" y="0px"
	 viewBox="0 0 59 64" style="enable-background:new 0 0 59 64;" xml:space="preserve">
<style type="text/css">
	.st0{clip-path:url(#SVGID_2_);}
	.st1{fill:#B9B6BC;fill-opacity:0.5;}
</style>
<g>
	<g>
		<defs>
			<rect id="SVGID_1_" width="59" height="64"/>
		</defs>
		<clipPath id="SVGID_2_">
			<use xlink:href="#SVGID_1_"  style="overflow:visible;"/>
		</clipPath>
		<g class="st0">
			<path class="st1" d="M20.9,59.5c0.2-0.3,0.4-0.5,0.6-0.8c0.4-0.5,0.9-0.8,1.4-0.3c0.3,0.3,3.2,3,6.7,3c3.2,0,5.4-2,5.4-4.3
				c0-2.7-2.4-4.3-7-6.2c-4.4-1.9-7.1-3.6-7.1-8.1c0-2.7,2.1-7,8.5-7c3.9,0,6.8,2,6.8,2c0.3,0.1,0.7,0.6,0.3,1.4
				c-0.2,0.3-0.3,0.5-0.5,0.8c-0.3,0.6-0.8,0.7-1.4,0.3c-0.3-0.2-2.8-1.8-5.3-1.8c-4.3,0-5.5,2.7-5.5,4.3c0,2.6,2,4.1,5.4,5.6
				c5.4,2.2,8.9,4.1,8.9,8.7c0,4.1-3.9,7.1-8.6,7.1c-4.7,0-7.9-2.7-8.4-3.2C20.9,60.5,20.4,60.3,20.9,59.5z"/>
			<path class="st1" d="M30.1,11.9h-1.8v19h1.8V11.9z"/>
			<path class="st1" d="M30.1,0h-1.8v7.5h1.8V0z"/>
			<path class="st1" d="M19.7,14.4L18,15l5.9,17.7l1.7-0.6L19.7,14.4z"/>
			<path class="st1" d="M12.2,34.5l-1,1.5l6.2,4.1l1-1.5L12.2,34.5z"/>
			<path class="st1" d="M4.3,29.2l-1,1.5l5,3.3l1-1.5L4.3,29.2z"/>
			<path class="st1" d="M0.3,39.8L0,41.6l16.4,3.1l0.3-1.7L0.3,39.8z"/>
			<path class="st1" d="M6.4,13.7l-1.4,1L20,35.5l1.4-1L6.4,13.7z"/>
			<path class="st1" d="M39.3,14.4l-5.9,17.7l1.7,0.6L41,14.9L39.3,14.4z"/>
			<path class="st1" d="M46.8,34.4l-6.2,4.1l1,1.5l6.2-4.1L46.8,34.4z"/>
			<path class="st1" d="M54.7,29.3l-5,3.3l1,1.5l5-3.3L54.7,29.3z"/>
			<path class="st1" d="M58.7,39.9L42.3,43l0.3,1.7L59,41.6L58.7,39.9z"/>
			<path class="st1" d="M52.6,13.7L37.5,34.4l1.4,1l15.1-20.7L52.6,13.7z"/>
		</g>
	</g>
</g>
</svg>
